<mxfile host="app.diagrams.net" agent="Mozilla/5.0 (Windows NT 10.0; Win64; x64; rv:133.0) Gecko/20100101 Firefox/133.0" version="25.0.3" pages="2">
  <diagram id="R2lEEEUBdFMjLlhIrx00" name="Page-1">
    <mxGraphModel dx="2093" dy="2110" grid="1" gridSize="10" guides="1" tooltips="1" connect="1" arrows="1" fold="1" page="1" pageScale="1" pageWidth="850" pageHeight="1100" math="0" shadow="0" extFonts="Permanent Marker^https://fonts.googleapis.com/css?family=Permanent+Marker">
      <root>
        <mxCell id="0" />
        <mxCell id="1" parent="0" />
        <mxCell id="04urakdWcX9fBKobl6bI-1" value="Partidos" style="rounded=0;whiteSpace=wrap;html=1;" parent="1" vertex="1">
          <mxGeometry x="394" y="-628" width="120" height="40" as="geometry" />
        </mxCell>
        <mxCell id="04urakdWcX9fBKobl6bI-2" value="Equipos" style="rounded=0;whiteSpace=wrap;html=1;" parent="1" vertex="1">
          <mxGeometry x="104" y="-483" width="120" height="35" as="geometry" />
        </mxCell>
        <mxCell id="04urakdWcX9fBKobl6bI-6" value="Nombre" style="ellipse;whiteSpace=wrap;html=1;" parent="1" vertex="1">
          <mxGeometry x="88" y="-398" width="65" height="35" as="geometry" />
        </mxCell>
        <mxCell id="04urakdWcX9fBKobl6bI-9" value="Competiciones" style="rounded=0;whiteSpace=wrap;html=1;" parent="1" vertex="1">
          <mxGeometry x="474" y="-318" width="120" height="40" as="geometry" />
        </mxCell>
        <mxCell id="04urakdWcX9fBKobl6bI-11" value="Temporadas" style="rounded=0;whiteSpace=wrap;html=1;" parent="1" vertex="1">
          <mxGeometry x="691.5" y="-138" width="87.5" height="40" as="geometry" />
        </mxCell>
        <mxCell id="04urakdWcX9fBKobl6bI-15" value="Árbitros" style="rounded=0;whiteSpace=wrap;html=1;" parent="1" vertex="1">
          <mxGeometry x="649" y="-1003" width="120" height="30" as="geometry" />
        </mxCell>
        <mxCell id="04urakdWcX9fBKobl6bI-16" value="Equipo_arbitral" style="rounded=0;whiteSpace=wrap;html=1;" parent="1" vertex="1">
          <mxGeometry x="694" y="-598" width="120" height="30" as="geometry" />
        </mxCell>
        <mxCell id="04urakdWcX9fBKobl6bI-17" value="Jugadores" style="rounded=0;whiteSpace=wrap;html=1;" parent="1" vertex="1">
          <mxGeometry x="184" y="-798" width="120" height="40" as="geometry" />
        </mxCell>
        <mxCell id="04urakdWcX9fBKobl6bI-18" value="Nombre_completo" style="ellipse;whiteSpace=wrap;html=1;" parent="1" vertex="1">
          <mxGeometry x="114" y="-738" width="105" height="35" as="geometry" />
        </mxCell>
        <mxCell id="04urakdWcX9fBKobl6bI-19" value="Nombre_deportivo" style="ellipse;whiteSpace=wrap;html=1;" parent="1" vertex="1">
          <mxGeometry x="66.5" y="-868" width="115" height="25" as="geometry" />
        </mxCell>
        <mxCell id="04urakdWcX9fBKobl6bI-21" value="Peso" style="ellipse;whiteSpace=wrap;html=1;" parent="1" vertex="1">
          <mxGeometry x="213" y="-893" width="50" height="30" as="geometry" />
        </mxCell>
        <mxCell id="04urakdWcX9fBKobl6bI-22" value="Estatura" style="ellipse;whiteSpace=wrap;html=1;" parent="1" vertex="1">
          <mxGeometry x="138" y="-895.5" width="75" height="30" as="geometry" />
        </mxCell>
        <mxCell id="04urakdWcX9fBKobl6bI-23" value="Fecha_final_contrato" style="ellipse;whiteSpace=wrap;html=1;" parent="1" vertex="1">
          <mxGeometry x="9" y="-840" width="120" height="29.5" as="geometry" />
        </mxCell>
        <mxCell id="04urakdWcX9fBKobl6bI-24" value="Importe" style="ellipse;whiteSpace=wrap;html=1;" parent="1" vertex="1">
          <mxGeometry x="74" y="-810.5" width="55" height="30" as="geometry" />
        </mxCell>
        <mxCell id="04urakdWcX9fBKobl6bI-25" value="Lances" style="rounded=0;whiteSpace=wrap;html=1;" parent="1" vertex="1">
          <mxGeometry x="394" y="-948" width="120" height="37.5" as="geometry" />
        </mxCell>
        <mxCell id="04urakdWcX9fBKobl6bI-26" value="Tipo" style="ellipse;whiteSpace=wrap;html=1;" parent="1" vertex="1">
          <mxGeometry x="364" y="-1008" width="55" height="30" as="geometry" />
        </mxCell>
        <mxCell id="04urakdWcX9fBKobl6bI-27" value="Tiempo" style="ellipse;whiteSpace=wrap;html=1;" parent="1" vertex="1">
          <mxGeometry x="388" y="-895.5" width="55" height="30" as="geometry" />
        </mxCell>
        <mxCell id="04urakdWcX9fBKobl6bI-29" value="Comentario" style="ellipse;whiteSpace=wrap;html=1;" parent="1" vertex="1">
          <mxGeometry x="474" y="-895.5" width="75" height="30" as="geometry" />
        </mxCell>
        <mxCell id="inNDsGXoUcWYAkGI4Rf3-2" value="resultado_local" style="ellipse;whiteSpace=wrap;html=1;" parent="1" vertex="1">
          <mxGeometry x="491.5" y="-698" width="100" height="40" as="geometry" />
        </mxCell>
        <mxCell id="inNDsGXoUcWYAkGI4Rf3-6" value="resultado_visitante" style="ellipse;whiteSpace=wrap;html=1;" parent="1" vertex="1">
          <mxGeometry x="274" y="-668" width="120" height="40" as="geometry" />
        </mxCell>
        <mxCell id="inNDsGXoUcWYAkGI4Rf3-10" value="Partido_competitivo" style="rounded=0;whiteSpace=wrap;html=1;" parent="1" vertex="1">
          <mxGeometry x="474" y="-468" width="120" height="40" as="geometry" />
        </mxCell>
        <mxCell id="inNDsGXoUcWYAkGI4Rf3-11" value="Partido_amistoso" style="rounded=0;whiteSpace=wrap;html=1;" parent="1" vertex="1">
          <mxGeometry x="313" y="-468" width="120" height="40" as="geometry" />
        </mxCell>
        <mxCell id="YFh-IGeQEtQM-p5CWIq_-4" value="ISA" style="strokeWidth=2;html=1;shape=mxgraph.flowchart.merge_or_storage;whiteSpace=wrap;" parent="1" vertex="1">
          <mxGeometry x="486.5" y="-223" width="95" height="60" as="geometry" />
        </mxCell>
        <mxCell id="YFh-IGeQEtQM-p5CWIq_-5" value="género" style="ellipse;whiteSpace=wrap;html=1;" parent="1" vertex="1">
          <mxGeometry x="429" y="-348" width="72.5" height="20" as="geometry" />
        </mxCell>
        <mxCell id="YFh-IGeQEtQM-p5CWIq_-7" value="de naciones" style="rounded=0;whiteSpace=wrap;html=1;" parent="1" vertex="1">
          <mxGeometry x="559" y="-118" width="120" height="30" as="geometry" />
        </mxCell>
        <mxCell id="YFh-IGeQEtQM-p5CWIq_-8" value="de clubes" style="rounded=0;whiteSpace=wrap;html=1;" parent="1" vertex="1">
          <mxGeometry x="381.5" y="-123" width="120" height="30" as="geometry" />
        </mxCell>
        <mxCell id="YFh-IGeQEtQM-p5CWIq_-10" value="nacional/&lt;div&gt;internacional&lt;/div&gt;" style="ellipse;whiteSpace=wrap;html=1;" parent="1" vertex="1">
          <mxGeometry x="339" y="-188" width="85" height="40" as="geometry" />
        </mxCell>
        <mxCell id="YFh-IGeQEtQM-p5CWIq_-11" value="es nueva&amp;nbsp;&lt;div&gt;versión de&lt;/div&gt;" style="strokeWidth=2;html=1;shape=mxgraph.flowchart.decision;whiteSpace=wrap;" parent="1" vertex="1">
          <mxGeometry x="213" y="-148" width="100" height="80" as="geometry" />
        </mxCell>
        <mxCell id="YFh-IGeQEtQM-p5CWIq_-15" value="temporada&lt;div&gt;(deducida de fecha)&lt;/div&gt;" style="ellipse;whiteSpace=wrap;html=1;" parent="1" vertex="1">
          <mxGeometry x="274" y="-528" width="100" height="40" as="geometry" />
        </mxCell>
        <mxCell id="YFh-IGeQEtQM-p5CWIq_-20" value="forman/fichan" style="shape=rhombus;perimeter=rhombusPerimeter;whiteSpace=wrap;html=1;align=center;" parent="1" vertex="1">
          <mxGeometry x="66.5" y="-665" width="120" height="60" as="geometry" />
        </mxCell>
        <mxCell id="YFh-IGeQEtQM-p5CWIq_-23" value="asocia" style="shape=rhombus;perimeter=rhombusPerimeter;whiteSpace=wrap;html=1;align=center;" parent="1" vertex="1">
          <mxGeometry x="574" y="-818" width="105" height="45" as="geometry" />
        </mxCell>
        <mxCell id="Gta5DQi-riPikVPDDbvj-3" value="realizan" style="shape=rhombus;perimeter=rhombusPerimeter;whiteSpace=wrap;html=1;align=center;" parent="1" vertex="1">
          <mxGeometry x="264" y="-888" width="75" height="45" as="geometry" />
        </mxCell>
        <mxCell id="Gta5DQi-riPikVPDDbvj-6" value="asistentes" style="ellipse;shape=doubleEllipse;margin=3;whiteSpace=wrap;html=1;align=center;" parent="1" vertex="1">
          <mxGeometry x="704" y="-665" width="100" height="40" as="geometry" />
        </mxCell>
        <mxCell id="Gta5DQi-riPikVPDDbvj-8" value="roles_Arb" style="whiteSpace=wrap;html=1;align=center;" parent="1" vertex="1">
          <mxGeometry x="724" y="-818" width="87.5" height="30" as="geometry" />
        </mxCell>
        <mxCell id="Gta5DQi-riPikVPDDbvj-9" value="Rol" style="ellipse;whiteSpace=wrap;html=1;align=center;fontStyle=4;" parent="1" vertex="1">
          <mxGeometry x="735.25" y="-768" width="65" height="30" as="geometry" />
        </mxCell>
        <mxCell id="Gta5DQi-riPikVPDDbvj-10" value="inscriben" style="shape=rhombus;perimeter=rhombusPerimeter;whiteSpace=wrap;html=1;align=center;" parent="1" vertex="1">
          <mxGeometry x="224" y="-348" width="120" height="60" as="geometry" />
        </mxCell>
        <mxCell id="Gta5DQi-riPikVPDDbvj-18" value="desempeñan" style="shape=rhombus;perimeter=rhombusPerimeter;whiteSpace=wrap;html=1;align=center;" parent="1" vertex="1">
          <mxGeometry x="714" y="-893" width="107.5" height="40" as="geometry" />
        </mxCell>
        <mxCell id="Gta5DQi-riPikVPDDbvj-19" value="pertenece" style="shape=rhombus;perimeter=rhombusPerimeter;whiteSpace=wrap;html=1;align=center;" parent="1" vertex="1">
          <mxGeometry x="694.63" y="-198" width="80" height="40" as="geometry" />
        </mxCell>
        <mxCell id="Gta5DQi-riPikVPDDbvj-20" value="año" style="ellipse;whiteSpace=wrap;html=1;align=center;fontStyle=4;" parent="1" vertex="1">
          <mxGeometry x="703.37" y="-83" width="63.75" height="25" as="geometry" />
        </mxCell>
        <mxCell id="Gta5DQi-riPikVPDDbvj-22" value="pertenece" style="shape=rhombus;perimeter=rhombusPerimeter;whiteSpace=wrap;html=1;align=center;" parent="1" vertex="1">
          <mxGeometry x="491.5" y="-398" width="85" height="50" as="geometry" />
        </mxCell>
        <mxCell id="Gta5DQi-riPikVPDDbvj-24" value="nombre_competición" style="ellipse;whiteSpace=wrap;html=1;align=center;fontStyle=4;" parent="1" vertex="1">
          <mxGeometry x="380.5" y="-265.5" width="130" height="30" as="geometry" />
        </mxCell>
        <mxCell id="Gta5DQi-riPikVPDDbvj-27" value="nacionalidad" style="ellipse;whiteSpace=wrap;html=1;align=center;" parent="1" vertex="1">
          <mxGeometry x="724.63" y="-953" width="100" height="30" as="geometry" />
        </mxCell>
        <mxCell id="Gta5DQi-riPikVPDDbvj-28" value="id" style="ellipse;whiteSpace=wrap;html=1;align=center;fontStyle=4;" parent="1" vertex="1">
          <mxGeometry x="786.5" y="-998" width="52.5" height="30" as="geometry" />
        </mxCell>
        <mxCell id="Gta5DQi-riPikVPDDbvj-29" value="nombre" style="ellipse;whiteSpace=wrap;html=1;align=center;" parent="1" vertex="1">
          <mxGeometry x="741.5" y="-1043" width="80" height="20" as="geometry" />
        </mxCell>
        <mxCell id="Gta5DQi-riPikVPDDbvj-33" value="fecha_alta" style="ellipse;whiteSpace=wrap;html=1;align=center;" parent="1" vertex="1">
          <mxGeometry x="204.25" y="-288" width="70" height="30" as="geometry" />
        </mxCell>
        <mxCell id="Gta5DQi-riPikVPDDbvj-35" value="fecha_baja" style="ellipse;whiteSpace=wrap;html=1;align=center;" parent="1" vertex="1">
          <mxGeometry x="288" y="-288" width="76" height="30" as="geometry" />
        </mxCell>
        <mxCell id="Gta5DQi-riPikVPDDbvj-36" value="registran" style="shape=rhombus;perimeter=rhombusPerimeter;whiteSpace=wrap;html=1;align=center;" parent="1" vertex="1">
          <mxGeometry x="394" y="-773" width="120" height="60" as="geometry" />
        </mxCell>
        <mxCell id="Gta5DQi-riPikVPDDbvj-40" value="realizan" style="shape=rhombus;perimeter=rhombusPerimeter;whiteSpace=wrap;html=1;align=center;" parent="1" vertex="1">
          <mxGeometry x="529" y="-1011.5" width="75" height="47" as="geometry" />
        </mxCell>
        <mxCell id="Gta5DQi-riPikVPDDbvj-48" value="ISA" style="strokeWidth=2;html=1;shape=mxgraph.flowchart.merge_or_storage;whiteSpace=wrap;" parent="1" vertex="1">
          <mxGeometry x="406.5" y="-558" width="95" height="60" as="geometry" />
        </mxCell>
        <mxCell id="cS88r38_KW8MVmtZ6D21-2" value="ISA" style="strokeWidth=2;html=1;shape=mxgraph.flowchart.merge_or_storage;whiteSpace=wrap;" parent="1" vertex="1">
          <mxGeometry x="58" y="-295.5" width="95" height="60" as="geometry" />
        </mxCell>
        <mxCell id="cS88r38_KW8MVmtZ6D21-3" value="Selecciones" style="rounded=0;whiteSpace=wrap;html=1;" parent="1" vertex="1">
          <mxGeometry x="3" y="-205.5" width="100" height="20" as="geometry" />
        </mxCell>
        <mxCell id="cS88r38_KW8MVmtZ6D21-5" value="Clubes" style="rounded=0;whiteSpace=wrap;html=1;" parent="1" vertex="1">
          <mxGeometry x="113" y="-205.5" width="100" height="20" as="geometry" />
        </mxCell>
        <mxCell id="cS88r38_KW8MVmtZ6D21-10" value="País" style="ellipse;whiteSpace=wrap;html=1;align=center;" parent="1" vertex="1">
          <mxGeometry x="18" y="-170.5" width="70" height="30" as="geometry" />
        </mxCell>
        <mxCell id="cS88r38_KW8MVmtZ6D21-11" value="Ciudad" style="ellipse;whiteSpace=wrap;html=1;align=center;" parent="1" vertex="1">
          <mxGeometry x="128" y="-170.5" width="70" height="30" as="geometry" />
        </mxCell>
        <mxCell id="cS88r38_KW8MVmtZ6D21-15" value="Jornadas_Fases" style="shape=ext;margin=3;double=1;whiteSpace=wrap;html=1;align=center;" parent="1" vertex="1">
          <mxGeometry x="674" y="-438" width="115" height="40" as="geometry" />
        </mxCell>
        <mxCell id="cS88r38_KW8MVmtZ6D21-17" value="tiene" style="shape=rhombus;perimeter=rhombusPerimeter;whiteSpace=wrap;html=1;align=center;" parent="1" vertex="1">
          <mxGeometry x="599" y="-388" width="70" height="50" as="geometry" />
        </mxCell>
        <mxCell id="cS88r38_KW8MVmtZ6D21-21" value="&lt;div&gt;Competicion_&lt;/div&gt;&lt;div&gt;Temporada&lt;/div&gt;" style="rounded=0;whiteSpace=wrap;html=1;" parent="1" vertex="1">
          <mxGeometry x="724.63" y="-298" width="105" height="40" as="geometry" />
        </mxCell>
        <mxCell id="cS88r38_KW8MVmtZ6D21-23" value="pertenece" style="shape=rhombus;perimeter=rhombusPerimeter;whiteSpace=wrap;html=1;align=center;" parent="1" vertex="1">
          <mxGeometry x="624" y="-303" width="70" height="50" as="geometry" />
        </mxCell>
        <mxCell id="LJqsEhRlSRcl8UIKpy76-1" value="" style="endArrow=none;html=1;rounded=0;fontSize=12;startSize=8;endSize=8;curved=1;entryX=0.5;entryY=1;entryDx=0;entryDy=0;exitX=0.5;exitY=0;exitDx=0;exitDy=0;" parent="1" source="Gta5DQi-riPikVPDDbvj-8" target="Gta5DQi-riPikVPDDbvj-18" edge="1">
          <mxGeometry width="50" height="50" relative="1" as="geometry">
            <mxPoint x="632.75" y="-807.5" as="sourcePoint" />
            <mxPoint x="682.75" y="-857.5" as="targetPoint" />
          </mxGeometry>
        </mxCell>
        <mxCell id="TzkVPNW5jithaWXrd3FV-46" value="&lt;font style=&quot;font-size: 14px;&quot;&gt;(1,1)&lt;/font&gt;" style="edgeLabel;html=1;align=center;verticalAlign=middle;resizable=0;points=[];" parent="LJqsEhRlSRcl8UIKpy76-1" vertex="1" connectable="0">
          <mxGeometry x="-0.3194" y="1" relative="1" as="geometry">
            <mxPoint as="offset" />
          </mxGeometry>
        </mxCell>
        <mxCell id="LJqsEhRlSRcl8UIKpy76-2" value="" style="endArrow=none;html=1;rounded=0;fontSize=12;startSize=8;endSize=8;curved=1;entryX=0;entryY=0.5;entryDx=0;entryDy=0;exitX=0.531;exitY=1.022;exitDx=0;exitDy=0;exitPerimeter=0;" parent="1" source="04urakdWcX9fBKobl6bI-15" target="Gta5DQi-riPikVPDDbvj-18" edge="1">
          <mxGeometry width="50" height="50" relative="1" as="geometry">
            <mxPoint x="676.5" y="-753" as="sourcePoint" />
            <mxPoint x="726.5" y="-803" as="targetPoint" />
          </mxGeometry>
        </mxCell>
        <mxCell id="TzkVPNW5jithaWXrd3FV-47" value="&lt;font style=&quot;font-size: 14px;&quot;&gt;(1,1)&lt;/font&gt;" style="edgeLabel;html=1;align=center;verticalAlign=middle;resizable=0;points=[];" parent="LJqsEhRlSRcl8UIKpy76-2" vertex="1" connectable="0">
          <mxGeometry x="-0.2333" relative="1" as="geometry">
            <mxPoint as="offset" />
          </mxGeometry>
        </mxCell>
        <mxCell id="LJqsEhRlSRcl8UIKpy76-3" value="" style="endArrow=none;html=1;rounded=0;fontSize=12;startSize=8;endSize=8;entryX=0.25;entryY=1;entryDx=0;entryDy=0;exitX=0.5;exitY=0;exitDx=0;exitDy=0;edgeStyle=orthogonalEdgeStyle;" parent="1" source="YFh-IGeQEtQM-p5CWIq_-23" target="04urakdWcX9fBKobl6bI-15" edge="1">
          <mxGeometry width="50" height="50" relative="1" as="geometry">
            <mxPoint x="669" y="-758" as="sourcePoint" />
            <mxPoint x="719" y="-808" as="targetPoint" />
          </mxGeometry>
        </mxCell>
        <mxCell id="SiwQUYb9ngDk87hLv0Yr-3" value="&lt;font style=&quot;font-size: 14px;&quot;&gt;N&lt;/font&gt;" style="edgeLabel;html=1;align=center;verticalAlign=middle;resizable=0;points=[];" vertex="1" connectable="0" parent="LJqsEhRlSRcl8UIKpy76-3">
          <mxGeometry x="0.6583" relative="1" as="geometry">
            <mxPoint x="2" y="-17" as="offset" />
          </mxGeometry>
        </mxCell>
        <mxCell id="LJqsEhRlSRcl8UIKpy76-4" value="" style="endArrow=none;html=1;rounded=0;fontSize=12;startSize=8;endSize=8;entryX=1;entryY=0.5;entryDx=0;entryDy=0;exitX=0;exitY=0.5;exitDx=0;exitDy=0;edgeStyle=orthogonalEdgeStyle;" parent="1" source="04urakdWcX9fBKobl6bI-16" target="YFh-IGeQEtQM-p5CWIq_-23" edge="1">
          <mxGeometry width="50" height="50" relative="1" as="geometry">
            <mxPoint x="669" y="-618" as="sourcePoint" />
            <mxPoint x="719" y="-668" as="targetPoint" />
            <Array as="points">
              <mxPoint x="684" y="-583" />
              <mxPoint x="684" y="-795" />
            </Array>
          </mxGeometry>
        </mxCell>
        <mxCell id="SiwQUYb9ngDk87hLv0Yr-30" value="&lt;font style=&quot;font-size: 14px;&quot;&gt;1&lt;/font&gt;" style="edgeLabel;html=1;align=center;verticalAlign=middle;resizable=0;points=[];" vertex="1" connectable="0" parent="LJqsEhRlSRcl8UIKpy76-4">
          <mxGeometry x="-0.2125" y="-2" relative="1" as="geometry">
            <mxPoint as="offset" />
          </mxGeometry>
        </mxCell>
        <mxCell id="LJqsEhRlSRcl8UIKpy76-5" value="" style="endArrow=none;html=1;rounded=0;fontSize=12;startSize=8;endSize=8;entryX=0.5;entryY=1;entryDx=0;entryDy=0;exitX=1;exitY=0.5;exitDx=0;exitDy=0;edgeStyle=orthogonalEdgeStyle;" parent="1" source="04urakdWcX9fBKobl6bI-25" target="Gta5DQi-riPikVPDDbvj-40" edge="1">
          <mxGeometry width="50" height="50" relative="1" as="geometry">
            <mxPoint x="669" y="-608" as="sourcePoint" />
            <mxPoint x="719" y="-658" as="targetPoint" />
          </mxGeometry>
        </mxCell>
        <mxCell id="TzkVPNW5jithaWXrd3FV-45" value="&lt;font style=&quot;font-size: 14px;&quot;&gt;(0,n)&lt;/font&gt;" style="edgeLabel;html=1;align=center;verticalAlign=middle;resizable=0;points=[];" parent="LJqsEhRlSRcl8UIKpy76-5" vertex="1" connectable="0">
          <mxGeometry x="-0.4989" relative="1" as="geometry">
            <mxPoint as="offset" />
          </mxGeometry>
        </mxCell>
        <mxCell id="LJqsEhRlSRcl8UIKpy76-6" value="" style="endArrow=none;html=1;rounded=0;fontSize=12;startSize=8;endSize=8;curved=1;exitX=1;exitY=0.5;exitDx=0;exitDy=0;entryX=0;entryY=0.5;entryDx=0;entryDy=0;" parent="1" source="Gta5DQi-riPikVPDDbvj-40" target="04urakdWcX9fBKobl6bI-15" edge="1">
          <mxGeometry width="50" height="50" relative="1" as="geometry">
            <mxPoint x="669" y="-608" as="sourcePoint" />
            <mxPoint x="639" y="-994" as="targetPoint" />
          </mxGeometry>
        </mxCell>
        <mxCell id="TzkVPNW5jithaWXrd3FV-44" value="(1,1)" style="edgeLabel;html=1;align=center;verticalAlign=middle;resizable=0;points=[];" parent="LJqsEhRlSRcl8UIKpy76-6" vertex="1" connectable="0">
          <mxGeometry x="-0.15" y="2" relative="1" as="geometry">
            <mxPoint as="offset" />
          </mxGeometry>
        </mxCell>
        <mxCell id="LJqsEhRlSRcl8UIKpy76-8" value="" style="endArrow=none;html=1;rounded=0;fontSize=12;startSize=8;endSize=8;entryX=0;entryY=0.5;entryDx=0;entryDy=0;exitX=0.5;exitY=0;exitDx=0;exitDy=0;edgeStyle=orthogonalEdgeStyle;" parent="1" source="Gta5DQi-riPikVPDDbvj-3" target="04urakdWcX9fBKobl6bI-25" edge="1">
          <mxGeometry width="50" height="50" relative="1" as="geometry">
            <mxPoint x="539" y="-828" as="sourcePoint" />
            <mxPoint x="589" y="-878" as="targetPoint" />
          </mxGeometry>
        </mxCell>
        <mxCell id="TzkVPNW5jithaWXrd3FV-42" value="&lt;font style=&quot;font-size: 14px;&quot;&gt;(0,n)&lt;/font&gt;" style="edgeLabel;html=1;align=center;verticalAlign=middle;resizable=0;points=[];" parent="LJqsEhRlSRcl8UIKpy76-8" vertex="1" connectable="0">
          <mxGeometry x="0.5213" relative="1" as="geometry">
            <mxPoint as="offset" />
          </mxGeometry>
        </mxCell>
        <mxCell id="LJqsEhRlSRcl8UIKpy76-9" value="" style="endArrow=none;html=1;rounded=0;fontSize=12;startSize=8;endSize=8;curved=1;entryX=0.5;entryY=1;entryDx=0;entryDy=0;exitX=0.5;exitY=0;exitDx=0;exitDy=0;" parent="1" source="Gta5DQi-riPikVPDDbvj-36" target="04urakdWcX9fBKobl6bI-25" edge="1">
          <mxGeometry width="50" height="50" relative="1" as="geometry">
            <mxPoint x="539" y="-738" as="sourcePoint" />
            <mxPoint x="589" y="-788" as="targetPoint" />
          </mxGeometry>
        </mxCell>
        <mxCell id="SiwQUYb9ngDk87hLv0Yr-42" value="&lt;font style=&quot;font-size: 14px;&quot;&gt;N&lt;/font&gt;" style="edgeLabel;html=1;align=center;verticalAlign=middle;resizable=0;points=[];" vertex="1" connectable="0" parent="LJqsEhRlSRcl8UIKpy76-9">
          <mxGeometry x="0.0618" y="-1" relative="1" as="geometry">
            <mxPoint as="offset" />
          </mxGeometry>
        </mxCell>
        <mxCell id="LJqsEhRlSRcl8UIKpy76-10" value="" style="endArrow=none;html=1;rounded=0;fontSize=12;startSize=8;endSize=8;curved=1;entryX=0.5;entryY=1;entryDx=0;entryDy=0;exitX=0.979;exitY=0;exitDx=0;exitDy=0;exitPerimeter=0;" parent="1" source="04urakdWcX9fBKobl6bI-17" target="Gta5DQi-riPikVPDDbvj-3" edge="1">
          <mxGeometry width="50" height="50" relative="1" as="geometry">
            <mxPoint x="539" y="-738" as="sourcePoint" />
            <mxPoint x="589" y="-788" as="targetPoint" />
          </mxGeometry>
        </mxCell>
        <mxCell id="TzkVPNW5jithaWXrd3FV-43" value="&lt;font style=&quot;font-size: 14px;&quot;&gt;(1,1)&lt;/font&gt;" style="edgeLabel;html=1;align=center;verticalAlign=middle;resizable=0;points=[];" parent="LJqsEhRlSRcl8UIKpy76-10" vertex="1" connectable="0">
          <mxGeometry x="-0.2889" y="-1" relative="1" as="geometry">
            <mxPoint x="-1" y="-4" as="offset" />
          </mxGeometry>
        </mxCell>
        <mxCell id="LJqsEhRlSRcl8UIKpy76-11" value="" style="endArrow=none;html=1;rounded=0;fontSize=12;startSize=8;endSize=8;entryX=0.5;entryY=1;entryDx=0;entryDy=0;exitX=0.944;exitY=0.426;exitDx=0;exitDy=0;exitPerimeter=0;edgeStyle=orthogonalEdgeStyle;" parent="1" source="YFh-IGeQEtQM-p5CWIq_-20" target="04urakdWcX9fBKobl6bI-17" edge="1">
          <mxGeometry width="50" height="50" relative="1" as="geometry">
            <mxPoint x="539" y="-548" as="sourcePoint" />
            <mxPoint x="589" y="-598" as="targetPoint" />
            <Array as="points">
              <mxPoint x="180" y="-678" />
              <mxPoint x="244" y="-678" />
            </Array>
          </mxGeometry>
        </mxCell>
        <mxCell id="SiwQUYb9ngDk87hLv0Yr-33" value="&lt;font style=&quot;font-size: 14px;&quot;&gt;(n,m)&lt;/font&gt;" style="edgeLabel;html=1;align=center;verticalAlign=middle;resizable=0;points=[];" vertex="1" connectable="0" parent="LJqsEhRlSRcl8UIKpy76-11">
          <mxGeometry x="-0.0632" relative="1" as="geometry">
            <mxPoint x="-8" as="offset" />
          </mxGeometry>
        </mxCell>
        <mxCell id="LJqsEhRlSRcl8UIKpy76-12" value="" style="endArrow=none;html=1;rounded=0;fontSize=12;startSize=8;endSize=8;curved=1;entryX=0.59;entryY=0.972;entryDx=0;entryDy=0;exitX=0;exitY=0;exitDx=0;exitDy=0;entryPerimeter=0;" parent="1" source="Gta5DQi-riPikVPDDbvj-10" target="04urakdWcX9fBKobl6bI-17" edge="1">
          <mxGeometry width="50" height="50" relative="1" as="geometry">
            <mxPoint x="539" y="-548" as="sourcePoint" />
            <mxPoint x="589" y="-598" as="targetPoint" />
          </mxGeometry>
        </mxCell>
        <mxCell id="SiwQUYb9ngDk87hLv0Yr-48" value="&lt;font style=&quot;font-size: 14px;&quot;&gt;N&lt;/font&gt;" style="edgeLabel;html=1;align=center;verticalAlign=middle;resizable=0;points=[];" vertex="1" connectable="0" parent="LJqsEhRlSRcl8UIKpy76-12">
          <mxGeometry x="0.4707" y="-2" relative="1" as="geometry">
            <mxPoint as="offset" />
          </mxGeometry>
        </mxCell>
        <mxCell id="LJqsEhRlSRcl8UIKpy76-13" value="" style="endArrow=none;html=1;rounded=0;fontSize=12;startSize=8;endSize=8;entryX=0;entryY=0.5;entryDx=0;entryDy=0;exitX=0;exitY=0.25;exitDx=0;exitDy=0;edgeStyle=orthogonalEdgeStyle;" parent="1" source="04urakdWcX9fBKobl6bI-2" target="YFh-IGeQEtQM-p5CWIq_-20" edge="1">
          <mxGeometry width="50" height="50" relative="1" as="geometry">
            <mxPoint x="539" y="-548" as="sourcePoint" />
            <mxPoint x="589" y="-598" as="targetPoint" />
          </mxGeometry>
        </mxCell>
        <mxCell id="SiwQUYb9ngDk87hLv0Yr-32" value="&lt;font style=&quot;font-size: 14px;&quot;&gt;(1,1)&lt;/font&gt;" style="edgeLabel;html=1;align=center;verticalAlign=middle;resizable=0;points=[];" vertex="1" connectable="0" parent="LJqsEhRlSRcl8UIKpy76-13">
          <mxGeometry x="-0.2236" y="-3" relative="1" as="geometry">
            <mxPoint x="-4" y="-6" as="offset" />
          </mxGeometry>
        </mxCell>
        <mxCell id="LJqsEhRlSRcl8UIKpy76-14" value="" style="endArrow=none;html=1;rounded=0;fontSize=12;startSize=8;endSize=8;entryX=0.5;entryY=1;entryDx=0;entryDy=0;edgeStyle=elbowEdgeStyle;elbow=vertical;exitX=0.5;exitY=0;exitDx=0;exitDy=0;exitPerimeter=0;" parent="1" source="cS88r38_KW8MVmtZ6D21-2" target="04urakdWcX9fBKobl6bI-2" edge="1">
          <mxGeometry width="50" height="50" relative="1" as="geometry">
            <mxPoint x="539" y="-338" as="sourcePoint" />
            <mxPoint x="589" y="-388" as="targetPoint" />
            <Array as="points">
              <mxPoint x="139" y="-348" />
            </Array>
          </mxGeometry>
        </mxCell>
        <mxCell id="LJqsEhRlSRcl8UIKpy76-15" value="" style="endArrow=none;html=1;rounded=0;fontSize=12;startSize=8;endSize=8;entryX=1;entryY=0.5;entryDx=0;entryDy=0;exitX=0.125;exitY=0.333;exitDx=0;exitDy=0;exitPerimeter=0;edgeStyle=orthogonalEdgeStyle;" parent="1" source="Gta5DQi-riPikVPDDbvj-10" target="04urakdWcX9fBKobl6bI-2" edge="1">
          <mxGeometry width="50" height="50" relative="1" as="geometry">
            <mxPoint x="539" y="-338" as="sourcePoint" />
            <mxPoint x="589" y="-388" as="targetPoint" />
          </mxGeometry>
        </mxCell>
        <mxCell id="SiwQUYb9ngDk87hLv0Yr-49" value="&lt;font style=&quot;font-size: 14px;&quot;&gt;1&lt;/font&gt;" style="edgeLabel;html=1;align=center;verticalAlign=middle;resizable=0;points=[];" vertex="1" connectable="0" parent="LJqsEhRlSRcl8UIKpy76-15">
          <mxGeometry x="-0.1208" y="1" relative="1" as="geometry">
            <mxPoint as="offset" />
          </mxGeometry>
        </mxCell>
        <mxCell id="LJqsEhRlSRcl8UIKpy76-16" value="" style="endArrow=none;html=1;rounded=0;fontSize=12;startSize=8;endSize=8;entryX=0.184;entryY=0.5;entryDx=0;entryDy=0;entryPerimeter=0;exitX=0.45;exitY=0;exitDx=0;exitDy=0;exitPerimeter=0;edgeStyle=orthogonalEdgeStyle;" parent="1" source="cS88r38_KW8MVmtZ6D21-3" target="cS88r38_KW8MVmtZ6D21-2" edge="1">
          <mxGeometry width="50" height="50" relative="1" as="geometry">
            <mxPoint x="528" y="-295.5" as="sourcePoint" />
            <mxPoint x="578" y="-345.5" as="targetPoint" />
          </mxGeometry>
        </mxCell>
        <mxCell id="LJqsEhRlSRcl8UIKpy76-17" value="" style="endArrow=none;html=1;rounded=0;fontSize=12;startSize=8;endSize=8;exitX=0.5;exitY=0;exitDx=0;exitDy=0;entryX=0.868;entryY=0.412;entryDx=0;entryDy=0;entryPerimeter=0;edgeStyle=orthogonalEdgeStyle;" parent="1" source="cS88r38_KW8MVmtZ6D21-5" target="cS88r38_KW8MVmtZ6D21-2" edge="1">
          <mxGeometry width="50" height="50" relative="1" as="geometry">
            <mxPoint x="528" y="-295.5" as="sourcePoint" />
            <mxPoint x="148" y="-265.5" as="targetPoint" />
          </mxGeometry>
        </mxCell>
        <mxCell id="LJqsEhRlSRcl8UIKpy76-18" value="" style="endArrow=none;html=1;rounded=0;fontSize=12;startSize=8;endSize=8;entryX=1;entryY=0.5;entryDx=0;entryDy=0;exitX=0;exitY=0.5;exitDx=0;exitDy=0;edgeStyle=orthogonalEdgeStyle;" parent="1" source="04urakdWcX9fBKobl6bI-9" target="Gta5DQi-riPikVPDDbvj-10" edge="1">
          <mxGeometry width="50" height="50" relative="1" as="geometry">
            <mxPoint x="539" y="-338" as="sourcePoint" />
            <mxPoint x="589" y="-388" as="targetPoint" />
          </mxGeometry>
        </mxCell>
        <mxCell id="SiwQUYb9ngDk87hLv0Yr-50" value="&lt;font style=&quot;font-size: 14px;&quot;&gt;N&lt;/font&gt;" style="edgeLabel;html=1;align=center;verticalAlign=middle;resizable=0;points=[];" vertex="1" connectable="0" parent="LJqsEhRlSRcl8UIKpy76-18">
          <mxGeometry x="-0.5299" y="2" relative="1" as="geometry">
            <mxPoint y="-2" as="offset" />
          </mxGeometry>
        </mxCell>
        <mxCell id="LJqsEhRlSRcl8UIKpy76-19" value="" style="endArrow=none;html=1;rounded=0;fontSize=12;startSize=8;endSize=8;curved=1;entryX=0;entryY=0.5;entryDx=0;entryDy=0;exitX=1;exitY=0.5;exitDx=0;exitDy=0;exitPerimeter=0;" parent="1" source="YFh-IGeQEtQM-p5CWIq_-11" target="YFh-IGeQEtQM-p5CWIq_-8" edge="1">
          <mxGeometry width="50" height="50" relative="1" as="geometry">
            <mxPoint x="309" y="-118" as="sourcePoint" />
            <mxPoint x="589" y="-318" as="targetPoint" />
          </mxGeometry>
        </mxCell>
        <mxCell id="SiwQUYb9ngDk87hLv0Yr-55" value="&lt;font style=&quot;font-size: 14px;&quot;&gt;(0,1)&lt;/font&gt;" style="edgeLabel;html=1;align=center;verticalAlign=middle;resizable=0;points=[];" vertex="1" connectable="0" parent="LJqsEhRlSRcl8UIKpy76-19">
          <mxGeometry x="-0.163" relative="1" as="geometry">
            <mxPoint as="offset" />
          </mxGeometry>
        </mxCell>
        <mxCell id="LJqsEhRlSRcl8UIKpy76-20" value="" style="endArrow=none;html=1;rounded=0;fontSize=12;startSize=8;endSize=8;exitX=0.5;exitY=1;exitDx=0;exitDy=0;exitPerimeter=0;entryX=0.5;entryY=1;entryDx=0;entryDy=0;edgeStyle=orthogonalEdgeStyle;" parent="1" source="YFh-IGeQEtQM-p5CWIq_-11" target="YFh-IGeQEtQM-p5CWIq_-8" edge="1">
          <mxGeometry width="50" height="50" relative="1" as="geometry">
            <mxPoint x="539" y="-268" as="sourcePoint" />
            <mxPoint x="589" y="-318" as="targetPoint" />
          </mxGeometry>
        </mxCell>
        <mxCell id="SiwQUYb9ngDk87hLv0Yr-56" value="&lt;font style=&quot;font-size: 14px;&quot;&gt;(0,1)&lt;/font&gt;" style="edgeLabel;html=1;align=center;verticalAlign=middle;resizable=0;points=[];" vertex="1" connectable="0" parent="LJqsEhRlSRcl8UIKpy76-20">
          <mxGeometry x="-0.6992" relative="1" as="geometry">
            <mxPoint as="offset" />
          </mxGeometry>
        </mxCell>
        <mxCell id="LJqsEhRlSRcl8UIKpy76-22" value="" style="endArrow=none;html=1;rounded=0;fontSize=12;startSize=8;endSize=8;exitX=0.458;exitY=0.018;exitDx=0;exitDy=0;exitPerimeter=0;entryX=0.096;entryY=0.356;entryDx=0;entryDy=0;entryPerimeter=0;edgeStyle=orthogonalEdgeStyle;" parent="1" source="YFh-IGeQEtQM-p5CWIq_-8" target="YFh-IGeQEtQM-p5CWIq_-4" edge="1">
          <mxGeometry width="50" height="50" relative="1" as="geometry">
            <mxPoint x="539" y="-293" as="sourcePoint" />
            <mxPoint x="589" y="-343" as="targetPoint" />
          </mxGeometry>
        </mxCell>
        <mxCell id="LJqsEhRlSRcl8UIKpy76-23" value="" style="endArrow=none;html=1;rounded=0;fontSize=12;startSize=8;endSize=8;exitX=0.5;exitY=0;exitDx=0;exitDy=0;entryX=0.868;entryY=0.426;entryDx=0;entryDy=0;entryPerimeter=0;edgeStyle=orthogonalEdgeStyle;" parent="1" source="YFh-IGeQEtQM-p5CWIq_-7" target="YFh-IGeQEtQM-p5CWIq_-4" edge="1">
          <mxGeometry width="50" height="50" relative="1" as="geometry">
            <mxPoint x="539" y="-293" as="sourcePoint" />
            <mxPoint x="589" y="-343" as="targetPoint" />
          </mxGeometry>
        </mxCell>
        <mxCell id="LJqsEhRlSRcl8UIKpy76-24" value="" style="endArrow=none;html=1;rounded=0;fontSize=12;startSize=8;endSize=8;curved=1;exitX=0.5;exitY=0;exitDx=0;exitDy=0;exitPerimeter=0;entryX=0.5;entryY=1;entryDx=0;entryDy=0;" parent="1" source="YFh-IGeQEtQM-p5CWIq_-4" target="04urakdWcX9fBKobl6bI-9" edge="1">
          <mxGeometry width="50" height="50" relative="1" as="geometry">
            <mxPoint x="539" y="-358" as="sourcePoint" />
            <mxPoint x="589" y="-408" as="targetPoint" />
          </mxGeometry>
        </mxCell>
        <mxCell id="LJqsEhRlSRcl8UIKpy76-25" value="" style="endArrow=none;html=1;rounded=0;fontSize=12;startSize=8;endSize=8;curved=1;exitX=0.5;exitY=0;exitDx=0;exitDy=0;entryX=0.5;entryY=1;entryDx=0;entryDy=0;" parent="1" source="04urakdWcX9fBKobl6bI-11" target="Gta5DQi-riPikVPDDbvj-19" edge="1">
          <mxGeometry width="50" height="50" relative="1" as="geometry">
            <mxPoint x="536.5" y="-343" as="sourcePoint" />
            <mxPoint x="586.5" y="-393" as="targetPoint" />
          </mxGeometry>
        </mxCell>
        <mxCell id="SiwQUYb9ngDk87hLv0Yr-57" value="&lt;font style=&quot;font-size: 14px;&quot;&gt;(1,1)&lt;/font&gt;" style="edgeLabel;html=1;align=center;verticalAlign=middle;resizable=0;points=[];" vertex="1" connectable="0" parent="LJqsEhRlSRcl8UIKpy76-25">
          <mxGeometry x="-0.2231" y="-1" relative="1" as="geometry">
            <mxPoint x="-1" y="-2" as="offset" />
          </mxGeometry>
        </mxCell>
        <mxCell id="LJqsEhRlSRcl8UIKpy76-26" value="" style="endArrow=none;html=1;rounded=0;fontSize=12;startSize=8;endSize=8;exitX=0.5;exitY=0;exitDx=0;exitDy=0;entryX=0.5;entryY=1;entryDx=0;entryDy=0;edgeStyle=elbowEdgeStyle;elbow=vertical;" parent="1" source="Gta5DQi-riPikVPDDbvj-19" target="cS88r38_KW8MVmtZ6D21-21" edge="1">
          <mxGeometry width="50" height="50" relative="1" as="geometry">
            <mxPoint x="579" y="-358" as="sourcePoint" />
            <mxPoint x="629" y="-408" as="targetPoint" />
          </mxGeometry>
        </mxCell>
        <mxCell id="SiwQUYb9ngDk87hLv0Yr-58" value="&lt;font style=&quot;font-size: 14px;&quot;&gt;(1,1)&lt;/font&gt;" style="edgeLabel;html=1;align=center;verticalAlign=middle;resizable=0;points=[];" vertex="1" connectable="0" parent="LJqsEhRlSRcl8UIKpy76-26">
          <mxGeometry x="0.1155" relative="1" as="geometry">
            <mxPoint as="offset" />
          </mxGeometry>
        </mxCell>
        <mxCell id="LJqsEhRlSRcl8UIKpy76-27" value="" style="endArrow=none;html=1;rounded=0;fontSize=12;startSize=8;endSize=8;entryX=0;entryY=0.5;entryDx=0;entryDy=0;exitX=1;exitY=0.5;exitDx=0;exitDy=0;edgeStyle=orthogonalEdgeStyle;" parent="1" source="cS88r38_KW8MVmtZ6D21-23" target="cS88r38_KW8MVmtZ6D21-21" edge="1">
          <mxGeometry width="50" height="50" relative="1" as="geometry">
            <mxPoint x="579" y="-358" as="sourcePoint" />
            <mxPoint x="629" y="-408" as="targetPoint" />
          </mxGeometry>
        </mxCell>
        <mxCell id="SiwQUYb9ngDk87hLv0Yr-53" value="&lt;font style=&quot;font-size: 14px;&quot;&gt;(1,1)&lt;/font&gt;" style="edgeLabel;html=1;align=center;verticalAlign=middle;resizable=0;points=[];" vertex="1" connectable="0" parent="LJqsEhRlSRcl8UIKpy76-27">
          <mxGeometry x="0.0922" relative="1" as="geometry">
            <mxPoint as="offset" />
          </mxGeometry>
        </mxCell>
        <mxCell id="LJqsEhRlSRcl8UIKpy76-28" value="" style="endArrow=none;html=1;rounded=0;fontSize=12;startSize=8;endSize=8;exitX=0.75;exitY=0;exitDx=0;exitDy=0;edgeStyle=orthogonalEdgeStyle;entryX=0;entryY=0.5;entryDx=0;entryDy=0;" parent="1" source="04urakdWcX9fBKobl6bI-9" target="cS88r38_KW8MVmtZ6D21-17" edge="1">
          <mxGeometry width="50" height="50" relative="1" as="geometry">
            <mxPoint x="579" y="-358" as="sourcePoint" />
            <mxPoint x="599" y="-358" as="targetPoint" />
            <Array as="points">
              <mxPoint x="579" y="-318" />
              <mxPoint x="579" y="-363" />
            </Array>
          </mxGeometry>
        </mxCell>
        <mxCell id="SiwQUYb9ngDk87hLv0Yr-60" value="&lt;font style=&quot;font-size: 14px;&quot;&gt;(1,1)&lt;/font&gt;" style="edgeLabel;html=1;align=center;verticalAlign=middle;resizable=0;points=[];" vertex="1" connectable="0" parent="LJqsEhRlSRcl8UIKpy76-28">
          <mxGeometry x="-0.184" y="1" relative="1" as="geometry">
            <mxPoint as="offset" />
          </mxGeometry>
        </mxCell>
        <mxCell id="LJqsEhRlSRcl8UIKpy76-29" value="" style="endArrow=none;html=1;rounded=0;fontSize=12;startSize=8;endSize=8;curved=1;exitX=0.5;exitY=0;exitDx=0;exitDy=0;entryX=0.5;entryY=1;entryDx=0;entryDy=0;" parent="1" source="04urakdWcX9fBKobl6bI-9" target="Gta5DQi-riPikVPDDbvj-22" edge="1">
          <mxGeometry width="50" height="50" relative="1" as="geometry">
            <mxPoint x="579" y="-358" as="sourcePoint" />
            <mxPoint x="629" y="-408" as="targetPoint" />
          </mxGeometry>
        </mxCell>
        <mxCell id="SiwQUYb9ngDk87hLv0Yr-51" value="&lt;font style=&quot;font-size: 14px;&quot;&gt;(1,1)&lt;/font&gt;" style="edgeLabel;html=1;align=center;verticalAlign=middle;resizable=0;points=[];" vertex="1" connectable="0" parent="LJqsEhRlSRcl8UIKpy76-29">
          <mxGeometry x="0.2667" y="-1" relative="1" as="geometry">
            <mxPoint as="offset" />
          </mxGeometry>
        </mxCell>
        <mxCell id="LJqsEhRlSRcl8UIKpy76-30" value="" style="endArrow=none;html=1;rounded=0;fontSize=12;startSize=8;endSize=8;entryX=0.5;entryY=1;entryDx=0;entryDy=0;exitX=1;exitY=0.5;exitDx=0;exitDy=0;edgeStyle=orthogonalEdgeStyle;" parent="1" source="cS88r38_KW8MVmtZ6D21-17" target="cS88r38_KW8MVmtZ6D21-15" edge="1">
          <mxGeometry width="50" height="50" relative="1" as="geometry">
            <mxPoint x="579" y="-358" as="sourcePoint" />
            <mxPoint x="629" y="-408" as="targetPoint" />
          </mxGeometry>
        </mxCell>
        <mxCell id="SiwQUYb9ngDk87hLv0Yr-59" value="&lt;font style=&quot;font-size: 14px;&quot;&gt;(1,n)&lt;/font&gt;" style="edgeLabel;html=1;align=center;verticalAlign=middle;resizable=0;points=[];" vertex="1" connectable="0" parent="LJqsEhRlSRcl8UIKpy76-30">
          <mxGeometry x="0.04" relative="1" as="geometry">
            <mxPoint as="offset" />
          </mxGeometry>
        </mxCell>
        <mxCell id="LJqsEhRlSRcl8UIKpy76-31" value="" style="endArrow=none;html=1;rounded=0;fontSize=12;startSize=8;endSize=8;curved=1;entryX=0.5;entryY=1;entryDx=0;entryDy=0;exitX=0.5;exitY=0;exitDx=0;exitDy=0;" parent="1" source="Gta5DQi-riPikVPDDbvj-22" target="inNDsGXoUcWYAkGI4Rf3-10" edge="1">
          <mxGeometry width="50" height="50" relative="1" as="geometry">
            <mxPoint x="579" y="-358" as="sourcePoint" />
            <mxPoint x="629" y="-408" as="targetPoint" />
          </mxGeometry>
        </mxCell>
        <mxCell id="SiwQUYb9ngDk87hLv0Yr-52" value="&lt;font style=&quot;font-size: 14px;&quot;&gt;(n,m)&lt;/font&gt;" style="edgeLabel;html=1;align=center;verticalAlign=middle;resizable=0;points=[];" vertex="1" connectable="0" parent="LJqsEhRlSRcl8UIKpy76-31">
          <mxGeometry x="-0.0258" relative="1" as="geometry">
            <mxPoint as="offset" />
          </mxGeometry>
        </mxCell>
        <mxCell id="LJqsEhRlSRcl8UIKpy76-32" value="" style="endArrow=none;html=1;rounded=0;fontSize=12;startSize=8;endSize=8;entryX=0.912;entryY=0.342;entryDx=0;entryDy=0;entryPerimeter=0;exitX=0.5;exitY=0;exitDx=0;exitDy=0;edgeStyle=orthogonalEdgeStyle;" parent="1" source="inNDsGXoUcWYAkGI4Rf3-10" target="Gta5DQi-riPikVPDDbvj-48" edge="1">
          <mxGeometry width="50" height="50" relative="1" as="geometry">
            <mxPoint x="579" y="-458" as="sourcePoint" />
            <mxPoint x="629" y="-508" as="targetPoint" />
          </mxGeometry>
        </mxCell>
        <mxCell id="LJqsEhRlSRcl8UIKpy76-33" value="" style="endArrow=none;html=1;rounded=0;fontSize=12;startSize=8;endSize=8;exitX=0.5;exitY=0;exitDx=0;exitDy=0;entryX=0.123;entryY=0.384;entryDx=0;entryDy=0;entryPerimeter=0;edgeStyle=orthogonalEdgeStyle;" parent="1" source="inNDsGXoUcWYAkGI4Rf3-11" target="Gta5DQi-riPikVPDDbvj-48" edge="1">
          <mxGeometry width="50" height="50" relative="1" as="geometry">
            <mxPoint x="579" y="-458" as="sourcePoint" />
            <mxPoint x="629" y="-508" as="targetPoint" />
          </mxGeometry>
        </mxCell>
        <mxCell id="LJqsEhRlSRcl8UIKpy76-34" value="" style="endArrow=none;html=1;rounded=0;fontSize=12;startSize=8;endSize=8;curved=1;exitX=0.5;exitY=0;exitDx=0;exitDy=0;exitPerimeter=0;entryX=0.5;entryY=1;entryDx=0;entryDy=0;" parent="1" source="Gta5DQi-riPikVPDDbvj-48" target="04urakdWcX9fBKobl6bI-1" edge="1">
          <mxGeometry width="50" height="50" relative="1" as="geometry">
            <mxPoint x="579" y="-578" as="sourcePoint" />
            <mxPoint x="629" y="-628" as="targetPoint" />
          </mxGeometry>
        </mxCell>
        <mxCell id="LJqsEhRlSRcl8UIKpy76-35" value="" style="endArrow=none;html=1;rounded=0;fontSize=12;startSize=8;endSize=8;curved=1;exitX=0.5;exitY=0;exitDx=0;exitDy=0;entryX=0.5;entryY=1;entryDx=0;entryDy=0;" parent="1" source="04urakdWcX9fBKobl6bI-1" target="Gta5DQi-riPikVPDDbvj-36" edge="1">
          <mxGeometry width="50" height="50" relative="1" as="geometry">
            <mxPoint x="579" y="-698" as="sourcePoint" />
            <mxPoint x="629" y="-748" as="targetPoint" />
          </mxGeometry>
        </mxCell>
        <mxCell id="SiwQUYb9ngDk87hLv0Yr-40" value="&lt;font style=&quot;font-size: 14px;&quot;&gt;1&lt;/font&gt;" style="edgeLabel;html=1;align=center;verticalAlign=middle;resizable=0;points=[];" vertex="1" connectable="0" parent="LJqsEhRlSRcl8UIKpy76-35">
          <mxGeometry x="-0.2941" y="-1" relative="1" as="geometry">
            <mxPoint as="offset" />
          </mxGeometry>
        </mxCell>
        <mxCell id="LJqsEhRlSRcl8UIKpy76-36" value="" style="endArrow=none;html=1;rounded=0;fontSize=12;startSize=8;endSize=8;exitX=1;exitY=0.5;exitDx=0;exitDy=0;edgeStyle=orthogonalEdgeStyle;entryX=0.5;entryY=1;entryDx=0;entryDy=0;" parent="1" target="YFh-IGeQEtQM-p5CWIq_-23" edge="1">
          <mxGeometry width="50" height="50" relative="1" as="geometry">
            <mxPoint x="514" y="-615" as="sourcePoint" />
            <mxPoint x="627" y="-768" as="targetPoint" />
          </mxGeometry>
        </mxCell>
        <mxCell id="SiwQUYb9ngDk87hLv0Yr-29" value="&lt;font style=&quot;font-size: 14px;&quot;&gt;N&lt;/font&gt;" style="edgeLabel;html=1;align=center;verticalAlign=middle;resizable=0;points=[];" vertex="1" connectable="0" parent="LJqsEhRlSRcl8UIKpy76-36">
          <mxGeometry x="-0.6344" relative="1" as="geometry">
            <mxPoint as="offset" />
          </mxGeometry>
        </mxCell>
        <mxCell id="TzkVPNW5jithaWXrd3FV-1" value="" style="endArrow=none;html=1;rounded=0;entryX=0.5;entryY=0;entryDx=0;entryDy=0;exitX=0.5;exitY=1;exitDx=0;exitDy=0;" parent="1" source="Gta5DQi-riPikVPDDbvj-8" target="Gta5DQi-riPikVPDDbvj-9" edge="1">
          <mxGeometry width="50" height="50" relative="1" as="geometry">
            <mxPoint x="477.75" y="-858" as="sourcePoint" />
            <mxPoint x="527.75" y="-908" as="targetPoint" />
          </mxGeometry>
        </mxCell>
        <mxCell id="TzkVPNW5jithaWXrd3FV-2" value="" style="endArrow=none;html=1;rounded=0;entryX=0.5;entryY=1;entryDx=0;entryDy=0;exitX=0.75;exitY=0;exitDx=0;exitDy=0;" parent="1" source="04urakdWcX9fBKobl6bI-15" target="Gta5DQi-riPikVPDDbvj-29" edge="1">
          <mxGeometry width="50" height="50" relative="1" as="geometry">
            <mxPoint x="786.5" y="-973" as="sourcePoint" />
            <mxPoint x="836.5" y="-1023" as="targetPoint" />
          </mxGeometry>
        </mxCell>
        <mxCell id="TzkVPNW5jithaWXrd3FV-3" value="" style="endArrow=none;html=1;rounded=0;entryX=0.75;entryY=1;entryDx=0;entryDy=0;exitX=0.5;exitY=0;exitDx=0;exitDy=0;" parent="1" source="Gta5DQi-riPikVPDDbvj-27" target="04urakdWcX9fBKobl6bI-15" edge="1">
          <mxGeometry width="50" height="50" relative="1" as="geometry">
            <mxPoint x="734" y="-947.5" as="sourcePoint" />
            <mxPoint x="759" y="-964.5" as="targetPoint" />
          </mxGeometry>
        </mxCell>
        <mxCell id="TzkVPNW5jithaWXrd3FV-4" value="" style="endArrow=none;html=1;rounded=0;entryX=0;entryY=0.5;entryDx=0;entryDy=0;exitX=1;exitY=0.5;exitDx=0;exitDy=0;" parent="1" source="04urakdWcX9fBKobl6bI-15" target="Gta5DQi-riPikVPDDbvj-28" edge="1">
          <mxGeometry width="50" height="50" relative="1" as="geometry">
            <mxPoint x="759.5" y="-983" as="sourcePoint" />
            <mxPoint x="784.5" y="-1000" as="targetPoint" />
          </mxGeometry>
        </mxCell>
        <mxCell id="TzkVPNW5jithaWXrd3FV-5" value="" style="endArrow=none;html=1;rounded=0;entryX=0.5;entryY=1;entryDx=0;entryDy=0;exitX=0.75;exitY=0;exitDx=0;exitDy=0;" parent="1" source="04urakdWcX9fBKobl6bI-25" target="SiwQUYb9ngDk87hLv0Yr-26" edge="1">
          <mxGeometry width="50" height="50" relative="1" as="geometry">
            <mxPoint x="539" y="-898" as="sourcePoint" />
            <mxPoint x="479.74999999999955" y="-986.5000000000001" as="targetPoint" />
          </mxGeometry>
        </mxCell>
        <mxCell id="TzkVPNW5jithaWXrd3FV-6" value="" style="endArrow=none;html=1;rounded=0;entryX=0.5;entryY=1;entryDx=0;entryDy=0;exitX=0.25;exitY=0;exitDx=0;exitDy=0;" parent="1" source="04urakdWcX9fBKobl6bI-25" target="04urakdWcX9fBKobl6bI-26" edge="1">
          <mxGeometry width="50" height="50" relative="1" as="geometry">
            <mxPoint x="369" y="-918" as="sourcePoint" />
            <mxPoint x="419" y="-968" as="targetPoint" />
          </mxGeometry>
        </mxCell>
        <mxCell id="TzkVPNW5jithaWXrd3FV-7" value="" style="endArrow=none;html=1;rounded=0;entryX=0.25;entryY=1;entryDx=0;entryDy=0;exitX=0.5;exitY=0;exitDx=0;exitDy=0;" parent="1" source="04urakdWcX9fBKobl6bI-27" target="04urakdWcX9fBKobl6bI-25" edge="1">
          <mxGeometry width="50" height="50" relative="1" as="geometry">
            <mxPoint x="389" y="-848" as="sourcePoint" />
            <mxPoint x="439" y="-898" as="targetPoint" />
          </mxGeometry>
        </mxCell>
        <mxCell id="TzkVPNW5jithaWXrd3FV-8" value="" style="endArrow=none;html=1;rounded=0;entryX=0.75;entryY=1;entryDx=0;entryDy=0;exitX=0.5;exitY=0;exitDx=0;exitDy=0;" parent="1" source="04urakdWcX9fBKobl6bI-29" target="04urakdWcX9fBKobl6bI-25" edge="1">
          <mxGeometry width="50" height="50" relative="1" as="geometry">
            <mxPoint x="509" y="-868" as="sourcePoint" />
            <mxPoint x="559" y="-918" as="targetPoint" />
          </mxGeometry>
        </mxCell>
        <mxCell id="TzkVPNW5jithaWXrd3FV-9" value="" style="endArrow=none;html=1;rounded=0;entryX=0.5;entryY=1;entryDx=0;entryDy=0;exitX=0.5;exitY=0;exitDx=0;exitDy=0;" parent="1" source="04urakdWcX9fBKobl6bI-16" target="Gta5DQi-riPikVPDDbvj-6" edge="1">
          <mxGeometry width="50" height="50" relative="1" as="geometry">
            <mxPoint x="659" y="-538" as="sourcePoint" />
            <mxPoint x="709" y="-588" as="targetPoint" />
          </mxGeometry>
        </mxCell>
        <mxCell id="TzkVPNW5jithaWXrd3FV-10" value="" style="endArrow=none;html=1;rounded=0;entryX=0.5;entryY=1;entryDx=0;entryDy=0;exitX=0.5;exitY=0;exitDx=0;exitDy=0;" parent="1" source="SiwQUYb9ngDk87hLv0Yr-25" target="04urakdWcX9fBKobl6bI-16" edge="1">
          <mxGeometry width="50" height="50" relative="1" as="geometry">
            <mxPoint x="754" y="-543" as="sourcePoint" />
            <mxPoint x="719" y="-578" as="targetPoint" />
          </mxGeometry>
        </mxCell>
        <mxCell id="TzkVPNW5jithaWXrd3FV-11" value="" style="endArrow=none;html=1;rounded=0;entryX=0;entryY=1;entryDx=0;entryDy=0;exitX=0.75;exitY=0;exitDx=0;exitDy=0;" parent="1" source="04urakdWcX9fBKobl6bI-1" target="inNDsGXoUcWYAkGI4Rf3-2" edge="1">
          <mxGeometry width="50" height="50" relative="1" as="geometry">
            <mxPoint x="419" y="-588" as="sourcePoint" />
            <mxPoint x="469" y="-638" as="targetPoint" />
          </mxGeometry>
        </mxCell>
        <mxCell id="TzkVPNW5jithaWXrd3FV-12" value="" style="endArrow=none;html=1;rounded=0;entryX=0.25;entryY=0;entryDx=0;entryDy=0;exitX=0.5;exitY=1;exitDx=0;exitDy=0;" parent="1" source="SiwQUYb9ngDk87hLv0Yr-24" target="04urakdWcX9fBKobl6bI-1" edge="1">
          <mxGeometry width="50" height="50" relative="1" as="geometry">
            <mxPoint x="413" y="-658" as="sourcePoint" />
            <mxPoint x="541" y="-624" as="targetPoint" />
          </mxGeometry>
        </mxCell>
        <mxCell id="TzkVPNW5jithaWXrd3FV-13" value="" style="endArrow=none;html=1;rounded=0;entryX=1;entryY=1;entryDx=0;entryDy=0;exitX=0;exitY=0.25;exitDx=0;exitDy=0;" parent="1" source="04urakdWcX9fBKobl6bI-1" target="inNDsGXoUcWYAkGI4Rf3-6" edge="1">
          <mxGeometry width="50" height="50" relative="1" as="geometry">
            <mxPoint x="339" y="-568" as="sourcePoint" />
            <mxPoint x="389" y="-618" as="targetPoint" />
          </mxGeometry>
        </mxCell>
        <mxCell id="TzkVPNW5jithaWXrd3FV-14" value="" style="endArrow=none;html=1;rounded=0;entryX=0;entryY=0.75;entryDx=0;entryDy=0;exitX=1;exitY=0.5;exitDx=0;exitDy=0;" parent="1" source="SiwQUYb9ngDk87hLv0Yr-21" target="04urakdWcX9fBKobl6bI-1" edge="1">
          <mxGeometry width="50" height="50" relative="1" as="geometry">
            <mxPoint x="366.9211705354046" y="-592.6025012347036" as="sourcePoint" />
            <mxPoint x="429" y="-608" as="targetPoint" />
          </mxGeometry>
        </mxCell>
        <mxCell id="TzkVPNW5jithaWXrd3FV-15" value="" style="endArrow=none;html=1;rounded=0;entryX=1;entryY=0.75;entryDx=0;entryDy=0;exitX=0;exitY=0.5;exitDx=0;exitDy=0;" parent="1" source="SiwQUYb9ngDk87hLv0Yr-23" target="04urakdWcX9fBKobl6bI-1" edge="1">
          <mxGeometry width="50" height="50" relative="1" as="geometry">
            <mxPoint x="536.5466540681418" y="-592.1884270203539" as="sourcePoint" />
            <mxPoint x="539" y="-598" as="targetPoint" />
          </mxGeometry>
        </mxCell>
        <mxCell id="TzkVPNW5jithaWXrd3FV-16" value="" style="endArrow=none;html=1;rounded=0;entryX=0.5;entryY=1;entryDx=0;entryDy=0;exitX=0.25;exitY=0;exitDx=0;exitDy=0;" parent="1" source="inNDsGXoUcWYAkGI4Rf3-11" target="YFh-IGeQEtQM-p5CWIq_-15" edge="1">
          <mxGeometry width="50" height="50" relative="1" as="geometry">
            <mxPoint x="279" y="-418" as="sourcePoint" />
            <mxPoint x="329" y="-468" as="targetPoint" />
          </mxGeometry>
        </mxCell>
        <mxCell id="TzkVPNW5jithaWXrd3FV-17" value="" style="endArrow=none;html=1;rounded=0;entryX=0.5;entryY=1;entryDx=0;entryDy=0;exitX=0.75;exitY=0;exitDx=0;exitDy=0;" parent="1" source="04urakdWcX9fBKobl6bI-17" target="04urakdWcX9fBKobl6bI-21" edge="1">
          <mxGeometry width="50" height="50" relative="1" as="geometry">
            <mxPoint x="189" y="-798" as="sourcePoint" />
            <mxPoint x="239" y="-848" as="targetPoint" />
          </mxGeometry>
        </mxCell>
        <mxCell id="TzkVPNW5jithaWXrd3FV-18" value="" style="endArrow=none;html=1;rounded=0;entryX=1;entryY=1;entryDx=0;entryDy=0;exitX=0.5;exitY=0;exitDx=0;exitDy=0;" parent="1" source="04urakdWcX9fBKobl6bI-17" target="04urakdWcX9fBKobl6bI-22" edge="1">
          <mxGeometry width="50" height="50" relative="1" as="geometry">
            <mxPoint x="179" y="-708" as="sourcePoint" />
            <mxPoint x="229" y="-758" as="targetPoint" />
          </mxGeometry>
        </mxCell>
        <mxCell id="TzkVPNW5jithaWXrd3FV-19" value="" style="endArrow=none;html=1;rounded=0;entryX=1;entryY=1;entryDx=0;entryDy=0;exitX=0.25;exitY=0;exitDx=0;exitDy=0;" parent="1" source="04urakdWcX9fBKobl6bI-17" target="04urakdWcX9fBKobl6bI-19" edge="1">
          <mxGeometry width="50" height="50" relative="1" as="geometry">
            <mxPoint x="149" y="-738" as="sourcePoint" />
            <mxPoint x="199" y="-788" as="targetPoint" />
          </mxGeometry>
        </mxCell>
        <mxCell id="TzkVPNW5jithaWXrd3FV-20" value="" style="endArrow=none;html=1;rounded=0;entryX=1.008;entryY=0.659;entryDx=0;entryDy=0;entryPerimeter=0;exitX=0;exitY=0;exitDx=0;exitDy=0;" parent="1" source="04urakdWcX9fBKobl6bI-17" target="04urakdWcX9fBKobl6bI-23" edge="1">
          <mxGeometry width="50" height="50" relative="1" as="geometry">
            <mxPoint x="109" y="-758" as="sourcePoint" />
            <mxPoint x="159" y="-808" as="targetPoint" />
          </mxGeometry>
        </mxCell>
        <mxCell id="TzkVPNW5jithaWXrd3FV-21" value="" style="endArrow=none;html=1;rounded=0;entryX=1;entryY=0.5;entryDx=0;entryDy=0;exitX=0;exitY=0.25;exitDx=0;exitDy=0;" parent="1" source="04urakdWcX9fBKobl6bI-17" target="04urakdWcX9fBKobl6bI-24" edge="1">
          <mxGeometry width="50" height="50" relative="1" as="geometry">
            <mxPoint x="139" y="-738" as="sourcePoint" />
            <mxPoint x="189" y="-788" as="targetPoint" />
          </mxGeometry>
        </mxCell>
        <mxCell id="TzkVPNW5jithaWXrd3FV-22" value="" style="endArrow=none;html=1;rounded=0;exitX=1;exitY=0.5;exitDx=0;exitDy=0;entryX=0;entryY=0.5;entryDx=0;entryDy=0;" parent="1" source="SiwQUYb9ngDk87hLv0Yr-20" target="04urakdWcX9fBKobl6bI-17" edge="1">
          <mxGeometry width="50" height="50" relative="1" as="geometry">
            <mxPoint x="151.7902200730491" y="-769.2682216000935" as="sourcePoint" />
            <mxPoint x="279" y="-758" as="targetPoint" />
          </mxGeometry>
        </mxCell>
        <mxCell id="TzkVPNW5jithaWXrd3FV-24" value="" style="endArrow=none;html=1;rounded=0;entryX=0.25;entryY=1;entryDx=0;entryDy=0;exitX=0.5;exitY=0;exitDx=0;exitDy=0;" parent="1" source="04urakdWcX9fBKobl6bI-18" target="04urakdWcX9fBKobl6bI-17" edge="1">
          <mxGeometry width="50" height="50" relative="1" as="geometry">
            <mxPoint x="189" y="-698" as="sourcePoint" />
            <mxPoint x="239" y="-748" as="targetPoint" />
          </mxGeometry>
        </mxCell>
        <mxCell id="TzkVPNW5jithaWXrd3FV-25" value="" style="endArrow=none;html=1;rounded=0;entryX=0.5;entryY=0;entryDx=0;entryDy=0;exitX=0.25;exitY=1;exitDx=0;exitDy=0;" parent="1" source="04urakdWcX9fBKobl6bI-2" target="04urakdWcX9fBKobl6bI-6" edge="1">
          <mxGeometry width="50" height="50" relative="1" as="geometry">
            <mxPoint x="29" y="-328" as="sourcePoint" />
            <mxPoint x="79" y="-378" as="targetPoint" />
          </mxGeometry>
        </mxCell>
        <mxCell id="TzkVPNW5jithaWXrd3FV-26" value="" style="endArrow=none;html=1;rounded=0;entryX=0.5;entryY=0;entryDx=0;entryDy=0;exitX=0;exitY=0.75;exitDx=0;exitDy=0;" parent="1" source="04urakdWcX9fBKobl6bI-2" target="SiwQUYb9ngDk87hLv0Yr-12" edge="1">
          <mxGeometry width="50" height="50" relative="1" as="geometry">
            <mxPoint x="199" y="-368" as="sourcePoint" />
            <mxPoint x="54" y="-448" as="targetPoint" />
          </mxGeometry>
        </mxCell>
        <mxCell id="TzkVPNW5jithaWXrd3FV-27" value="" style="endArrow=none;html=1;rounded=0;entryX=0.5;entryY=1;entryDx=0;entryDy=0;exitX=0.5;exitY=0;exitDx=0;exitDy=0;" parent="1" source="cS88r38_KW8MVmtZ6D21-10" target="cS88r38_KW8MVmtZ6D21-3" edge="1">
          <mxGeometry width="50" height="50" relative="1" as="geometry">
            <mxPoint x="18" y="-105.5" as="sourcePoint" />
            <mxPoint x="68" y="-155.5" as="targetPoint" />
          </mxGeometry>
        </mxCell>
        <mxCell id="TzkVPNW5jithaWXrd3FV-28" value="" style="endArrow=none;html=1;rounded=0;entryX=0.5;entryY=1;entryDx=0;entryDy=0;exitX=0.5;exitY=0;exitDx=0;exitDy=0;" parent="1" source="cS88r38_KW8MVmtZ6D21-11" target="cS88r38_KW8MVmtZ6D21-5" edge="1">
          <mxGeometry width="50" height="50" relative="1" as="geometry">
            <mxPoint x="88" y="-145.5" as="sourcePoint" />
            <mxPoint x="138" y="-195.5" as="targetPoint" />
          </mxGeometry>
        </mxCell>
        <mxCell id="TzkVPNW5jithaWXrd3FV-29" value="" style="endArrow=none;html=1;rounded=0;entryX=0;entryY=1;entryDx=0;entryDy=0;exitX=0.5;exitY=0;exitDx=0;exitDy=0;" parent="1" source="Gta5DQi-riPikVPDDbvj-33" target="Gta5DQi-riPikVPDDbvj-10" edge="1">
          <mxGeometry width="50" height="50" relative="1" as="geometry">
            <mxPoint x="159" y="-258" as="sourcePoint" />
            <mxPoint x="209" y="-308" as="targetPoint" />
          </mxGeometry>
        </mxCell>
        <mxCell id="TzkVPNW5jithaWXrd3FV-30" value="" style="endArrow=none;html=1;rounded=0;entryX=1;entryY=1;entryDx=0;entryDy=0;exitX=0.5;exitY=0;exitDx=0;exitDy=0;" parent="1" source="Gta5DQi-riPikVPDDbvj-35" target="Gta5DQi-riPikVPDDbvj-10" edge="1">
          <mxGeometry width="50" height="50" relative="1" as="geometry">
            <mxPoint x="329" y="-268" as="sourcePoint" />
            <mxPoint x="379" y="-318" as="targetPoint" />
          </mxGeometry>
        </mxCell>
        <mxCell id="TzkVPNW5jithaWXrd3FV-31" value="" style="endArrow=none;html=1;rounded=0;entryX=1;entryY=1;entryDx=0;entryDy=0;exitX=0.25;exitY=0;exitDx=0;exitDy=0;" parent="1" source="04urakdWcX9fBKobl6bI-9" target="YFh-IGeQEtQM-p5CWIq_-5" edge="1">
          <mxGeometry width="50" height="50" relative="1" as="geometry">
            <mxPoint x="429" y="-238" as="sourcePoint" />
            <mxPoint x="479" y="-288" as="targetPoint" />
          </mxGeometry>
        </mxCell>
        <mxCell id="TzkVPNW5jithaWXrd3FV-33" value="" style="endArrow=none;html=1;rounded=0;entryX=1;entryY=1;entryDx=0;entryDy=0;exitX=0.25;exitY=0;exitDx=0;exitDy=0;" parent="1" source="YFh-IGeQEtQM-p5CWIq_-8" target="YFh-IGeQEtQM-p5CWIq_-10" edge="1">
          <mxGeometry width="50" height="50" relative="1" as="geometry">
            <mxPoint x="419" y="-98" as="sourcePoint" />
            <mxPoint x="386.5" y="-148" as="targetPoint" />
          </mxGeometry>
        </mxCell>
        <mxCell id="TzkVPNW5jithaWXrd3FV-34" value="" style="endArrow=none;html=1;rounded=0;entryX=0.25;entryY=1;entryDx=0;entryDy=0;exitX=1;exitY=0;exitDx=0;exitDy=0;" parent="1" source="Gta5DQi-riPikVPDDbvj-24" target="04urakdWcX9fBKobl6bI-9" edge="1">
          <mxGeometry width="50" height="50" relative="1" as="geometry">
            <mxPoint x="509" y="-73" as="sourcePoint" />
            <mxPoint x="559" y="-123" as="targetPoint" />
          </mxGeometry>
        </mxCell>
        <mxCell id="TzkVPNW5jithaWXrd3FV-37" value="" style="endArrow=none;html=1;rounded=0;entryX=0.5;entryY=0;entryDx=0;entryDy=0;exitX=0.5;exitY=1;exitDx=0;exitDy=0;" parent="1" source="04urakdWcX9fBKobl6bI-11" target="Gta5DQi-riPikVPDDbvj-20" edge="1">
          <mxGeometry width="50" height="50" relative="1" as="geometry">
            <mxPoint x="656.5" y="-263" as="sourcePoint" />
            <mxPoint x="706.5" y="-313" as="targetPoint" />
          </mxGeometry>
        </mxCell>
        <mxCell id="SiwQUYb9ngDk87hLv0Yr-7" value="enfrentan" style="shape=rhombus;perimeter=rhombusPerimeter;whiteSpace=wrap;html=1;align=center;" vertex="1" parent="1">
          <mxGeometry x="104" y="-588" width="120" height="60" as="geometry" />
        </mxCell>
        <mxCell id="SiwQUYb9ngDk87hLv0Yr-8" value="" style="endArrow=none;html=1;rounded=0;entryX=0.5;entryY=1;entryDx=0;entryDy=0;exitX=0.5;exitY=0;exitDx=0;exitDy=0;" edge="1" parent="1" source="04urakdWcX9fBKobl6bI-2" target="SiwQUYb9ngDk87hLv0Yr-7">
          <mxGeometry width="50" height="50" relative="1" as="geometry">
            <mxPoint x="139" y="-438" as="sourcePoint" />
            <mxPoint x="189" y="-488" as="targetPoint" />
          </mxGeometry>
        </mxCell>
        <mxCell id="SiwQUYb9ngDk87hLv0Yr-43" value="&lt;span style=&quot;background-color: rgb(255, 255, 255);&quot;&gt;&lt;font style=&quot;font-size: 14px;&quot;&gt;(2,2)&lt;/font&gt;&lt;/span&gt;" style="edgeLabel;html=1;align=center;verticalAlign=middle;resizable=0;points=[];" vertex="1" connectable="0" parent="SiwQUYb9ngDk87hLv0Yr-8">
          <mxGeometry y="1" relative="1" as="geometry">
            <mxPoint as="offset" />
          </mxGeometry>
        </mxCell>
        <mxCell id="SiwQUYb9ngDk87hLv0Yr-9" value="" style="endArrow=none;html=1;rounded=0;exitX=1;exitY=0;exitDx=0;exitDy=0;entryX=0;entryY=0.5;entryDx=0;entryDy=0;edgeStyle=elbowEdgeStyle;elbow=vertical;" edge="1" parent="1" source="SiwQUYb9ngDk87hLv0Yr-7" target="04urakdWcX9fBKobl6bI-1">
          <mxGeometry width="50" height="50" relative="1" as="geometry">
            <mxPoint x="229" y="-618" as="sourcePoint" />
            <mxPoint x="279" y="-668" as="targetPoint" />
            <Array as="points">
              <mxPoint x="299" y="-608" />
            </Array>
          </mxGeometry>
        </mxCell>
        <mxCell id="SiwQUYb9ngDk87hLv0Yr-34" value="(0,n)" style="edgeLabel;html=1;align=center;verticalAlign=middle;resizable=0;points=[];" vertex="1" connectable="0" parent="SiwQUYb9ngDk87hLv0Yr-9">
          <mxGeometry x="0.151" y="-1" relative="1" as="geometry">
            <mxPoint as="offset" />
          </mxGeometry>
        </mxCell>
        <mxCell id="SiwQUYb9ngDk87hLv0Yr-12" value="Nombre_corto" style="ellipse;whiteSpace=wrap;html=1;align=center;fontStyle=4;" vertex="1" parent="1">
          <mxGeometry x="13" y="-433" width="86" height="35" as="geometry" />
        </mxCell>
        <mxCell id="SiwQUYb9ngDk87hLv0Yr-13" value="nombre_competicion" style="ellipse;whiteSpace=wrap;html=1;align=center;fontStyle=4;" vertex="1" parent="1">
          <mxGeometry x="709.25" y="-348" width="137" height="30" as="geometry" />
        </mxCell>
        <mxCell id="SiwQUYb9ngDk87hLv0Yr-14" value="" style="endArrow=none;html=1;rounded=0;entryX=0.5;entryY=1;entryDx=0;entryDy=0;exitX=0.5;exitY=0;exitDx=0;exitDy=0;" edge="1" parent="1" source="cS88r38_KW8MVmtZ6D21-21" target="SiwQUYb9ngDk87hLv0Yr-13">
          <mxGeometry width="50" height="50" relative="1" as="geometry">
            <mxPoint x="759" y="-268" as="sourcePoint" />
            <mxPoint x="809" y="-318" as="targetPoint" />
          </mxGeometry>
        </mxCell>
        <mxCell id="SiwQUYb9ngDk87hLv0Yr-15" value="año" style="ellipse;whiteSpace=wrap;html=1;align=center;fontStyle=4;" vertex="1" parent="1">
          <mxGeometry x="789" y="-223" width="46.88" height="25" as="geometry" />
        </mxCell>
        <mxCell id="SiwQUYb9ngDk87hLv0Yr-16" value="" style="endArrow=none;html=1;rounded=0;entryX=0.75;entryY=1;entryDx=0;entryDy=0;exitX=0.5;exitY=0;exitDx=0;exitDy=0;edgeStyle=elbowEdgeStyle;" edge="1" parent="1" source="SiwQUYb9ngDk87hLv0Yr-15" target="cS88r38_KW8MVmtZ6D21-21">
          <mxGeometry width="50" height="50" relative="1" as="geometry">
            <mxPoint x="749" y="-288" as="sourcePoint" />
            <mxPoint x="799" y="-338" as="targetPoint" />
            <Array as="points">
              <mxPoint x="814" y="-238" />
            </Array>
          </mxGeometry>
        </mxCell>
        <mxCell id="SiwQUYb9ngDk87hLv0Yr-17" value="Nombre_jornado_fase" style="ellipse;whiteSpace=wrap;html=1;align=center;" vertex="1" parent="1">
          <mxGeometry x="661.38" y="-495" width="142" height="27" as="geometry" />
        </mxCell>
        <mxCell id="SiwQUYb9ngDk87hLv0Yr-18" value="" style="endArrow=none;html=1;rounded=0;entryX=0.5;entryY=1;entryDx=0;entryDy=0;exitX=0.5;exitY=0;exitDx=0;exitDy=0;" edge="1" parent="1" source="cS88r38_KW8MVmtZ6D21-15" target="SiwQUYb9ngDk87hLv0Yr-17">
          <mxGeometry width="50" height="50" relative="1" as="geometry">
            <mxPoint x="749" y="-348" as="sourcePoint" />
            <mxPoint x="799" y="-398" as="targetPoint" />
          </mxGeometry>
        </mxCell>
        <mxCell id="SiwQUYb9ngDk87hLv0Yr-19" value="" style="endArrow=none;html=1;rounded=0;entryX=1;entryY=1;entryDx=0;entryDy=0;exitX=0;exitY=0.5;exitDx=0;exitDy=0;" edge="1" parent="1" source="cS88r38_KW8MVmtZ6D21-23" target="04urakdWcX9fBKobl6bI-9">
          <mxGeometry width="50" height="50" relative="1" as="geometry">
            <mxPoint x="599" y="-238" as="sourcePoint" />
            <mxPoint x="649" y="-288" as="targetPoint" />
          </mxGeometry>
        </mxCell>
        <mxCell id="SiwQUYb9ngDk87hLv0Yr-54" value="&lt;font style=&quot;font-size: 14px;&quot;&gt;(1,1)&lt;/font&gt;" style="edgeLabel;html=1;align=center;verticalAlign=middle;resizable=0;points=[];" vertex="1" connectable="0" parent="SiwQUYb9ngDk87hLv0Yr-19">
          <mxGeometry x="0.2" y="1" relative="1" as="geometry">
            <mxPoint as="offset" />
          </mxGeometry>
        </mxCell>
        <mxCell id="SiwQUYb9ngDk87hLv0Yr-20" value="id_jugador" style="ellipse;whiteSpace=wrap;html=1;align=center;fontStyle=4;" vertex="1" parent="1">
          <mxGeometry x="80" y="-773" width="81" height="32" as="geometry" />
        </mxCell>
        <mxCell id="SiwQUYb9ngDk87hLv0Yr-21" value="Equipo_visitante" style="ellipse;whiteSpace=wrap;html=1;align=center;fontStyle=4;" vertex="1" parent="1">
          <mxGeometry x="273" y="-588" width="106" height="30" as="geometry" />
        </mxCell>
        <mxCell id="SiwQUYb9ngDk87hLv0Yr-23" value="Equipo_local" style="ellipse;whiteSpace=wrap;html=1;align=center;fontStyle=4;" vertex="1" parent="1">
          <mxGeometry x="529" y="-588" width="100" height="30" as="geometry" />
        </mxCell>
        <mxCell id="SiwQUYb9ngDk87hLv0Yr-24" value="Fecha" style="ellipse;whiteSpace=wrap;html=1;align=center;fontStyle=4;" vertex="1" parent="1">
          <mxGeometry x="350.5" y="-713" width="100" height="40" as="geometry" />
        </mxCell>
        <mxCell id="SiwQUYb9ngDk87hLv0Yr-25" value="Principal" style="ellipse;whiteSpace=wrap;html=1;align=center;fontStyle=4;" vertex="1" parent="1">
          <mxGeometry x="711.5" y="-548" width="85" height="30" as="geometry" />
        </mxCell>
        <mxCell id="SiwQUYb9ngDk87hLv0Yr-26" value="Id_lance" style="ellipse;whiteSpace=wrap;html=1;align=center;fontStyle=4;" vertex="1" parent="1">
          <mxGeometry x="429" y="-1008" width="70" height="25" as="geometry" />
        </mxCell>
        <mxCell id="SiwQUYb9ngDk87hLv0Yr-36" value="" style="shape=requiredInterface;html=1;verticalLabelPosition=bottom;sketch=0;rotation=90;" vertex="1" parent="1">
          <mxGeometry x="439" y="-558" width="30" height="120" as="geometry" />
        </mxCell>
        <mxCell id="SiwQUYb9ngDk87hLv0Yr-37" value="" style="shape=requiredInterface;html=1;verticalLabelPosition=bottom;sketch=0;rotation=90;" vertex="1" parent="1">
          <mxGeometry x="519" y="-228" width="30" height="120" as="geometry" />
        </mxCell>
        <mxCell id="SiwQUYb9ngDk87hLv0Yr-38" value="" style="shape=requiredInterface;html=1;verticalLabelPosition=bottom;sketch=0;rotation=90;" vertex="1" parent="1">
          <mxGeometry x="90.5" y="-298" width="30" height="120" as="geometry" />
        </mxCell>
      </root>
    </mxGraphModel>
  </diagram>
  <diagram id="UOu0zwOPBb_SiSx9JhJ9" name="Página-2">
    <mxGraphModel grid="1" page="1" gridSize="10" guides="1" tooltips="1" connect="1" arrows="1" fold="1" pageScale="1" pageWidth="827" pageHeight="1169" math="0" shadow="0">
      <root>
        <mxCell id="0" />
        <mxCell id="1" parent="0" />
      </root>
    </mxGraphModel>
  </diagram>
</mxfile>
